<svg xmlns="http://www.w3.org/2000/svg" xmlns:xlink="http://www.w3.org/1999/xlink" style="margin:auto;background:#f2f3f0;display:block;z-index:1;position:relative" width="1248" height="907" preserveAspectRatio="xMidYMid" viewBox="0 0 1248 907">
<g transform="translate(624,453.5) scale(1,1) translate(-624,-453.5)"><path id="path0" d="M 531.2296791061673 42.4144870155976
c 0 30.582412066738076 -7.48293061207421 8.784309848956681 -16.26724046103089 8.784309848956681
S 498.69519818410555 72.99689908233567 498.69519818410555 42.4144870155976
s 7.48293061207421 -8.784309848956681 16.26724046103089 -8.784309848956681
S 531.2296791061673 11.832074948859525 531.2296791061673 42.4144870155976
z" fill="none" stroke="none"></path>
<circle cx="0" cy="0" r="6.738971359063198" fill="#9df871" opacity="0.9">
  <animateMotion begin="-3.329630175363116s" dur="4.640000000000001s" repeatCount="indefinite">
    <mpath xlink:href="#path0"></mpath>
  </animateMotion>
</circle><path id="path1" d="M 750.7196087883594 209.06249624483684
c 0 25.51316902939887 -6.242583911448659 7.328250678657123 -13.570834590105783 7.328250678657123
S 723.577939608148 234.57566527423572 723.577939608148 209.06249624483684
s 6.242583911448659 -7.328250678657123 13.570834590105783 -7.328250678657123
S 750.7196087883594 183.54932721543796 750.7196087883594 209.06249624483684
z" fill="none" stroke="none"></path>
<circle cx="0" cy="0" r="10.12392664850699" fill="#ff708e" opacity="0.9">
  <animateMotion begin="-1.6030985433957654s" dur="4.640000000000001s" repeatCount="indefinite">
    <mpath xlink:href="#path1"></mpath>
  </animateMotion>
</circle><path id="path2" d="M 553.6963649784612 417.349979205698
c 0 18.863974998768242 -4.61565345714542 5.4183757975185385 -10.03402925466396 5.4183757975185385
S 533.6283064691332 436.21395420446623 533.6283064691332 417.349979205698
s 4.61565345714542 -5.4183757975185385 10.03402925466396 -5.4183757975185385
S 553.6963649784612 398.48600420692975 553.6963649784612 417.349979205698
z" fill="none" stroke="none"></path>
<circle cx="0" cy="0" r="10.165791853921728" fill="#51cacc" opacity="0.9">
  <animateMotion begin="-3.694385796632586s" dur="4.640000000000001s" repeatCount="indefinite">
    <mpath xlink:href="#path2"></mpath>
  </animateMotion>
</circle><path id="path3" d="M 767.367180426013 466.77739571643156
c 0 35.22376505149343 -8.618580810471796 10.117464429684285 -18.73604524015608 10.117464429684285
S 729.8950899457009 502.001160767925 729.8950899457009 466.77739571643156
s 8.618580810471796 -10.117464429684285 18.73604524015608 -10.117464429684285
S 767.367180426013 431.5536306649381 767.367180426013 466.77739571643156
z" fill="none" stroke="none"></path>
<circle cx="0" cy="0" r="10.703906845315586" fill="#e0ff77" opacity="0.9">
  <animateMotion begin="-1.3636231602448787s" dur="4.640000000000001s" repeatCount="indefinite">
    <mpath xlink:href="#path3"></mpath>
  </animateMotion>
</circle><path id="path4" d="M 1221.5576723983131 675.1505107921328
c 0 34.10228973666945 -8.344177275993587 9.795338541383778 -18.139515817377365 9.795338541383778
S 1185.2786407635585 709.2528005288023 1185.2786407635585 675.1505107921328
s 8.344177275993587 -9.795338541383778 18.139515817377365 -9.795338541383778
S 1221.5576723983131 641.0482210554633 1221.5576723983131 675.1505107921328
z" fill="none" stroke="none"></path>
<circle cx="0" cy="0" r="12.483319377146875" fill="#51cacc" opacity="0.9">
  <animateMotion begin="-1.8588757350846097s" dur="4.640000000000001s" repeatCount="indefinite">
    <mpath xlink:href="#path4"></mpath>
  </animateMotion>
</circle><path id="path5" d="M 1191.5828001617917 758.2819438476796
c 0 33.121579253084825 -8.104216200222881 9.51364510460947 -17.617861304832353 9.51364510460947
S 1156.347077552127 791.4035231007645 1156.347077552127 758.2819438476796
s 8.104216200222881 -9.51364510460947 17.617861304832353 -9.51364510460947
S 1191.5828001617917 725.1603645945947 1191.5828001617917 758.2819438476796
z" fill="none" stroke="none"></path>
<circle cx="0" cy="0" r="9.887587668730715" fill="#e0ff77" opacity="0.9">
  <animateMotion begin="-2.0338739270136377s" dur="4.640000000000001s" repeatCount="indefinite">
    <mpath xlink:href="#path5"></mpath>
  </animateMotion>
</circle><path id="path6" d="M 379.9805786856218 202.0411005519965
c 0 22.196258375394084 -5.430999389724084 6.375521022719578 -11.806520412443662 6.375521022719578
S 356.3675378607345 224.23735892739057 356.3675378607345 202.0411005519965
s 5.430999389724084 -6.375521022719578 11.806520412443662 -6.375521022719578
S 379.9805786856218 179.8448421766024 379.9805786856218 202.0411005519965
z" fill="none" stroke="none"></path>
<circle cx="0" cy="0" r="11.87959509015523" fill="#51cacc" opacity="0.9">
  <animateMotion begin="-1.622714859874622s" dur="4.640000000000001s" repeatCount="indefinite">
    <mpath xlink:href="#path6"></mpath>
  </animateMotion>
</circle><path id="path7" d="M 1005.6603362524463 596.3320936119281
c 0 26.327162754887066 -6.441752588961728 7.56205738704203 -14.003809976003758 7.56205738704203
S 977.6527163004389 622.6592563668152 977.6527163004389 596.3320936119281
s 6.441752588961728 -7.56205738704203 14.003809976003758 -7.56205738704203
S 1005.6603362524463 570.0049308570411 1005.6603362524463 596.3320936119281
z" fill="none" stroke="none"></path>
<circle cx="0" cy="0" r="8.649254105920393" fill="#ff708e" opacity="0.9">
  <animateMotion begin="-2.528547048421223s" dur="4.640000000000001s" repeatCount="indefinite">
    <mpath xlink:href="#path7"></mpath>
  </animateMotion>
</circle><path id="path8" d="M 94.14849206493915 522.2744640870907
c 0 31.46175631467171 -7.698089311036695 9.036887452086555 -16.73497676312325 9.036887452086555
S 60.678538538692656 553.7362204017624 60.678538538692656 522.2744640870907
s 7.698089311036695 -9.036887452086555 16.73497676312325 -9.036887452086555
S 94.14849206493915 490.81270777241895 94.14849206493915 522.2744640870907
z" fill="none" stroke="none"></path>
<circle cx="0" cy="0" r="9.99140547938527" fill="#51cacc" opacity="0.9">
  <animateMotion begin="-4.321410826394014s" dur="4.640000000000001s" repeatCount="indefinite">
    <mpath xlink:href="#path8"></mpath>
  </animateMotion>
</circle><path id="path9" d="M 723.9602405926514 254.9843346372992
c 0 23.856185020150775 -5.837151653866679 6.852308463234798 -12.689460117101476 6.852308463234798
S 698.5813203584485 278.84051965745 698.5813203584485 254.9843346372992
s 5.837151653866679 -6.852308463234798 12.689460117101476 -6.852308463234798
S 723.9602405926514 231.12814961714844 723.9602405926514 254.9843346372992
z" fill="none" stroke="none"></path>
<circle cx="0" cy="0" r="8.185142320396894" fill="#e0ff77" opacity="0.9">
  <animateMotion begin="-4.296183181550582s" dur="4.640000000000001s" repeatCount="indefinite">
    <mpath xlink:href="#path9"></mpath>
  </animateMotion>
</circle><path id="path10" d="M 206.3352537616282 764.5596017979977
c 0 29.368159841595244 -7.185826344220112 8.435535273649698 -15.621361617869809 8.435535273649698
S 175.09253052588858 793.927761639593 175.09253052588858 764.5596017979977
s 7.185826344220112 -8.435535273649698 15.621361617869809 -8.435535273649698
S 206.3352537616282 735.1914419564025 206.3352537616282 764.5596017979977
z" fill="none" stroke="none"></path>
<circle cx="0" cy="0" r="6.5298864291400545" fill="#51cacc" opacity="0.9">
  <animateMotion begin="-0.25017041257603095s" dur="4.640000000000001s" repeatCount="indefinite">
    <mpath xlink:href="#path10"></mpath>
  </animateMotion>
</circle><path id="path11" d="M 440.40935192059766 333.41467216617974
c 0 26.411915674866226 -6.4624900055523735 7.58640131086583 -14.048891316418203 7.58640131086583
S 412.3115692877613 359.826587841046 412.3115692877613 333.41467216617974
s 6.4624900055523735 -7.58640131086583 14.048891316418203 -7.58640131086583
S 440.40935192059766 307.0027564913135 440.40935192059766 333.41467216617974
z" fill="none" stroke="none"></path>
<circle cx="0" cy="0" r="11.2681643866751" fill="#e0ff77" opacity="0.9">
  <animateMotion begin="-2.4847884742741932s" dur="4.640000000000001s" repeatCount="indefinite">
    <mpath xlink:href="#path11"></mpath>
  </animateMotion>
</circle><path id="path12" d="M 708.7230326155627 861.0199933651924
c 0 28.164924009868347 -6.89141757688268 8.08992498155793 -14.981342558440609 8.08992498155793
S 678.7603474986815 889.1849173750608 678.7603474986815 861.0199933651924
s 6.89141757688268 -8.08992498155793 14.981342558440609 -8.08992498155793
S 708.7230326155627 832.855069355324 708.7230326155627 861.0199933651924
z" fill="none" stroke="none"></path>
<circle cx="0" cy="0" r="8.608236076737205" fill="#9df871" opacity="0.9">
  <animateMotion begin="-2.350842481243193s" dur="4.640000000000001s" repeatCount="indefinite">
    <mpath xlink:href="#path12"></mpath>
  </animateMotion>
</circle><path id="path13" d="M 809.8958927454199 14.07731854770364
c 0 21.26556240871313 -5.203275908514914 6.108193457821857 -11.31146936633677 6.108193457821857
S 787.2729540127465 35.34288095641677 787.2729540127465 14.07731854770364
s 5.203275908514914 -6.108193457821857 11.31146936633677 -6.108193457821857
S 809.8958927454199 -7.188243861009489 809.8958927454199 14.07731854770364
z" fill="none" stroke="none"></path>
<circle cx="0" cy="0" r="11.758691121726049" fill="#9df871" opacity="0.9">
  <animateMotion begin="-2.0363755682004503s" dur="4.640000000000001s" repeatCount="indefinite">
    <mpath xlink:href="#path13"></mpath>
  </animateMotion>
</circle><path id="path14" d="M 548.2863503282371 848.3488205484996
c 0 24.00351704206621 -5.873200978377902 6.8946272354871025 -12.767828213865005 6.8946272354871025
S 522.7506939005071 872.3523375905658 522.7506939005071 848.3488205484996
s 5.873200978377902 -6.8946272354871025 12.767828213865005 -6.8946272354871025
S 548.2863503282371 824.3453035064334 548.2863503282371 848.3488205484996
z" fill="none" stroke="none"></path>
<circle cx="0" cy="0" r="8.224378868274975" fill="#9df871" opacity="0.9">
  <animateMotion begin="-3.1727880674678715s" dur="4.640000000000001s" repeatCount="indefinite">
    <mpath xlink:href="#path14"></mpath>
  </animateMotion>
</circle><path id="path15" d="M 861.3572631873095 747.4305270447528
c 0 36.55059542461974 -8.943230795385682 10.498575281539715 -19.441806076925396 10.498575281539715
S 822.4736510334586 783.9811224693725 822.4736510334586 747.4305270447528
s 8.943230795385682 -10.498575281539715 19.441806076925396 -10.498575281539715
S 861.3572631873095 710.8799316201331 861.3572631873095 747.4305270447528
z" fill="none" stroke="none"></path>
<circle cx="0" cy="0" r="7.6796460005066915" fill="#e0ff77" opacity="0.9">
  <animateMotion begin="-4.559658014896143s" dur="4.640000000000001s" repeatCount="indefinite">
    <mpath xlink:href="#path15"></mpath>
  </animateMotion>
</circle><path id="path16" d="M 659.6567304468083 349.56733697220375
c 0 33.18965673097786 -8.12087345545203 9.533199273791514 -17.65407272924354 9.533199273791514
S 624.3485849883211 382.7569937031816 624.3485849883211 349.56733697220375
s 8.12087345545203 -9.533199273791514 17.65407272924354 -9.533199273791514
S 659.6567304468083 316.3776802412259 659.6567304468083 349.56733697220375
z" fill="none" stroke="none"></path>
<circle cx="0" cy="0" r="9.549575905479486" fill="#ff708e" opacity="0.9">
  <animateMotion begin="-0.4579035181640128s" dur="4.640000000000001s" repeatCount="indefinite">
    <mpath xlink:href="#path16"></mpath>
  </animateMotion>
</circle><path id="path17" d="M 41.87656547116508 171.62921405696017
c 0 34.00380104486976 -8.320078979063878 9.76704923629238 -18.087128215356255 9.76704923629238
S 5.7023090404525725 205.63301510182993 5.7023090404525725 171.62921405696017
s 8.320078979063878 -9.76704923629238 18.087128215356255 -9.76704923629238
S 41.87656547116508 137.6254130120904 41.87656547116508 171.62921405696017
z" fill="none" stroke="none"></path>
<circle cx="0" cy="0" r="7.906351122304102" fill="#ff708e" opacity="0.9">
  <animateMotion begin="-3.235141345410863s" dur="4.640000000000001s" repeatCount="indefinite">
    <mpath xlink:href="#path17"></mpath>
  </animateMotion>
</circle><path id="path18" d="M 611.9164876627746 316.0293401295054
c 0 37.08178390311564 -9.073202444379357 10.651150695575769 -19.724353139955127 10.651150695575769
S 572.4677813828642 353.11112403262103 572.4677813828642 316.0293401295054
s 9.073202444379357 -10.651150695575769 19.724353139955127 -10.651150695575769
S 611.9164876627746 278.94755622638974 611.9164876627746 316.0293401295054
z" fill="none" stroke="none"></path>
<circle cx="0" cy="0" r="12.19550528533248" fill="#9df871" opacity="0.9">
  <animateMotion begin="-4.4686022086695925s" dur="4.640000000000001s" repeatCount="indefinite">
    <mpath xlink:href="#path18"></mpath>
  </animateMotion>
</circle><path id="path19" d="M 1121.700960540847 483.5348375622132
c 0 19.395264047046194 -4.7456497136389615 5.570980098619652 -10.316629812258613 5.570980098619652
S 1101.0677009163296 502.9301016092594 1101.0677009163296 483.5348375622132
s 4.7456497136389615 -5.570980098619652 10.316629812258613 -5.570980098619652
S 1121.700960540847 464.13957351516706 1121.700960540847 483.5348375622132
z" fill="none" stroke="none"></path>
<circle cx="0" cy="0" r="9.486084274319811" fill="#de9dd6" opacity="0.9">
  <animateMotion begin="-0.2526627769569284s" dur="4.640000000000001s" repeatCount="indefinite">
    <mpath xlink:href="#path19"></mpath>
  </animateMotion>
</circle><path id="path20" d="M 189.89223128384378 364.45046669684325
c 0 21.703490579416325 -5.310428546027398 6.23398133664086 -11.544409882668258 6.23398133664086
S 166.8034115185073 386.1539572762596 166.8034115185073 364.45046669684325
s 5.310428546027398 -6.23398133664086 11.544409882668258 -6.23398133664086
S 189.89223128384378 342.7469761174269 189.89223128384378 364.45046669684325
z" fill="none" stroke="none"></path>
<circle cx="0" cy="0" r="9.840361870108989" fill="#51cacc" opacity="0.9">
  <animateMotion begin="-4.586773776940391s" dur="4.640000000000001s" repeatCount="indefinite">
    <mpath xlink:href="#path20"></mpath>
  </animateMotion>
</circle><path id="path21" d="M 1061.173350695994 703.0175346790656
c 0 28.913747916711976 -7.074640447706121 8.3050126994811 -15.37965314718722 8.3050126994811
S 1030.4140444016198 731.9312825957776 1030.4140444016198 703.0175346790656
s 7.074640447706121 -8.3050126994811 15.37965314718722 -8.3050126994811
S 1061.173350695994 674.1037867623537 1061.173350695994 703.0175346790656
z" fill="none" stroke="none"></path>
<circle cx="0" cy="0" r="12.7688971460097" fill="#ff708e" opacity="0.9">
  <animateMotion begin="-1.1192464193106426s" dur="4.640000000000001s" repeatCount="indefinite">
    <mpath xlink:href="#path21"></mpath>
  </animateMotion>
</circle><path id="path22" d="M 635.4826864462551 327.4503097261712
c 0 19.571718796474013 -4.788824811903216 5.621663909625514 -10.41048872152873 5.621663909625514
S 614.6617090031976 347.0220285226452 614.6617090031976 327.4503097261712
s 4.788824811903216 -5.621663909625514 10.41048872152873 -5.621663909625514
S 635.4826864462551 307.8785909296972 635.4826864462551 327.4503097261712
z" fill="none" stroke="none"></path>
<circle cx="0" cy="0" r="7.420626340215515" fill="#e0ff77" opacity="0.9">
  <animateMotion begin="-2.3259699671831977s" dur="4.640000000000001s" repeatCount="indefinite">
    <mpath xlink:href="#path22"></mpath>
  </animateMotion>
</circle><path id="path23" d="M 681.1002443204856 100.13351181292457
c 0 21.08936121929831 -5.160162851530437 6.057582477883558 -11.217745329413995 6.057582477883558
S 658.6647536616575 121.22287303222288 658.6647536616575 100.13351181292457
s 5.160162851530437 -6.057582477883558 11.217745329413995 -6.057582477883558
S 681.1002443204856 79.04415059362626 681.1002443204856 100.13351181292457
z" fill="none" stroke="none"></path>
<circle cx="0" cy="0" r="11.166374827283791" fill="#ff708e" opacity="0.9">
  <animateMotion begin="-0.7534817441888871s" dur="4.640000000000001s" repeatCount="indefinite">
    <mpath xlink:href="#path23"></mpath>
  </animateMotion>
</circle><path id="path24" d="M 412.36153839849356 404.9698116951731
c 0 32.33495528034407 -7.911744377105463 9.287699920949892 -17.199444298055354 9.287699920949892
S 377.9626498023828 437.30476697551717 377.9626498023828 404.9698116951731
s 7.911744377105463 -9.287699920949892 17.199444298055354 -9.287699920949892
S 412.36153839849356 372.6348564148291 412.36153839849356 404.9698116951731
z" fill="none" stroke="none"></path>
<circle cx="0" cy="0" r="11.42913745034453" fill="#ff708e" opacity="0.9">
  <animateMotion begin="-4.528517127419077s" dur="4.640000000000001s" repeatCount="indefinite">
    <mpath xlink:href="#path24"></mpath>
  </animateMotion>
</circle><path id="path25" d="M 195.93953838173618 159.73995867968392
c 0 19.771425634978577 -4.8376892511117795 5.679026512174698 -10.516715763286477 5.679026512174698
S 174.90610685516324 179.5113843146625 174.90610685516324 159.73995867968392
s 4.8376892511117795 -5.679026512174698 10.516715763286477 -5.679026512174698
S 195.93953838173618 139.96853304470534 195.93953838173618 159.73995867968392
z" fill="none" stroke="none"></path>
<circle cx="0" cy="0" r="8.263628016490458" fill="#9df871" opacity="0.9">
  <animateMotion begin="-0.5247818303458106s" dur="4.640000000000001s" repeatCount="indefinite">
    <mpath xlink:href="#path25"></mpath>
  </animateMotion>
</circle><path id="path26" d="M 181.5155260349347 536.8289498703465
c 0 32.00017826353289 -7.829830851715492 9.191540565057318 -17.02137141677281 9.191540565057318
S 147.4727832013891 568.8291281338794 147.4727832013891 536.8289498703465
s 7.829830851715492 -9.191540565057318 17.02137141677281 -9.191540565057318
S 181.5155260349347 504.8287716068136 181.5155260349347 536.8289498703465
z" fill="none" stroke="none"></path>
<circle cx="0" cy="0" r="10.99390279625027" fill="#de9dd6" opacity="0.9">
  <animateMotion begin="-2.5623447847580767s" dur="4.640000000000001s" repeatCount="indefinite">
    <mpath xlink:href="#path26"></mpath>
  </animateMotion>
</circle><path id="path27" d="M 697.1036364166729 311.78553673515205
c 0 25.26309123971654 -6.1813946650370255 7.256419824173901 -13.437814489210925 7.256419824173901
S 670.228007438251 337.04862797486857 670.228007438251 311.78553673515205
s 6.1813946650370255 -7.256419824173901 13.437814489210925 -7.256419824173901
S 697.1036364166729 286.52244549543553 697.1036364166729 311.78553673515205
z" fill="none" stroke="none"></path>
<circle cx="0" cy="0" r="9.696036080689769" fill="#9df871" opacity="0.9">
  <animateMotion begin="-0.6984628389565918s" dur="4.640000000000001s" repeatCount="indefinite">
    <mpath xlink:href="#path27"></mpath>
  </animateMotion>
</circle><path id="path28" d="M 118.78330370956792 775.350412092282
c 0 23.18868740585339 -5.673827769517318 6.6605804250855485 -12.334408194602865 6.6605804250855485
S 94.11448732036217 798.5390994981354 94.11448732036217 775.350412092282
s 5.673827769517318 -6.6605804250855485 12.334408194602865 -6.6605804250855485
S 118.78330370956792 752.1617246864286 118.78330370956792 775.350412092282
z" fill="none" stroke="none"></path>
<circle cx="0" cy="0" r="11.276453665866287" fill="#9df871" opacity="0.9">
  <animateMotion begin="-3.9426728397241853s" dur="4.640000000000001s" repeatCount="indefinite">
    <mpath xlink:href="#path28"></mpath>
  </animateMotion>
</circle><path id="path29" d="M 801.8035108716892 843.7558807642661
c 0 31.03427760245785 -7.5934934559205365 8.914101013471935 -16.507594469392473 8.914101013471935
S 768.7883219329042 874.790158366724 768.7883219329042 843.7558807642661
s 7.5934934559205365 -8.914101013471935 16.507594469392473 -8.914101013471935
S 801.8035108716892 812.7216031618082 801.8035108716892 843.7558807642661
z" fill="none" stroke="none"></path>
<circle cx="0" cy="0" r="10.279806797953016" fill="#9df871" opacity="0.9">
  <animateMotion begin="-0.8185756776059432s" dur="4.640000000000001s" repeatCount="indefinite">
    <mpath xlink:href="#path29"></mpath>
  </animateMotion>
</circle></g>
</svg>